# xmcd
#
# Track frame offsets:
#	150
#	15014
#	29702
#	53293
#	63607
#	78073
#	107004
#	136260
#	148706
#	161612
#	177652
#	188255
#
# Disc length: 2839 seconds
# Revision: 0
# Processed by: cddbd v1.5.2PL0 Copyright (c) Steve Scherf et al.
# Submitted via: dBpowerAMP V12.0
#
DISCID=8f0b150c
DTITLE=Dead Winter Carpenters - Dead Winter Carpenters
DYEAR=2010
DGENRE=Americana
TTITLE0=Holy Moses
TTITLE1=Devil Town
TTITLE2=Leavin' With a Smile
TTITLE3=Nobody's Fault
TTITLE4=Sun Don't Shine
TTITLE5=Vermont
TTITLE6=Russian River
TTITLE7=Beg, Borrow, and Steal
TTITLE8=Appalachian Night
TTITLE9=St. Peter
TTITLE10=Hip Hop Happy Hour
TTITLE11=Elijah
EXTD=
EXTT0=
EXTT1=
EXTT2=
EXTT3=
EXTT4=
EXTT5=
EXTT6=
EXTT7=
EXTT8=
EXTT9=
EXTT10=
EXTT11=
PLAYORDER=
